<svg viewBox="0 0 100 120" xmlns="http://www.w3.org/2000/svg" role="img" aria-label="product illustration">
  <defs>
    <linearGradient id="grad-casual-home-coord" x1="0%" y1="0%" x2="100%" y2="100%">
      <stop offset="0%" stop-color="#F3DCE2"/>
      <stop offset="100%" stop-color="#EFE3D0"/>
    </linearGradient>
    <clipPath id="clip-casual-home-coord"><path d="M32 10 L20 22 L26 30 L32 24 V46 H68 V24 L74 30 L80 22 L68 10 C68 16 60 20 50 20 C40 20 32 16 32 10 Z M34 54 H66 L64 108 L54 108 L51 70 L48 108 L38 108 Z"/></clipPath>
  </defs>
  <rect x="0" y="0" width="100" height="120" fill="none"/>
  <g clip-path="url(#clip-casual-home-coord)">
    <rect x="0" y="0" width="100" height="120" fill="url(#grad-casual-home-coord)"/>
    <line x1="-30" y1="-10" x2="4" y2="132" stroke="#C98A93" stroke-width="4.5" opacity="0.4"/><line x1="-17" y1="-10" x2="17" y2="132" stroke="#C98A93" stroke-width="4.5" opacity="0.4"/><line x1="-4" y1="-10" x2="30" y2="132" stroke="#C98A93" stroke-width="4.5" opacity="0.4"/><line x1="9" y1="-10" x2="43" y2="132" stroke="#C98A93" stroke-width="4.5" opacity="0.4"/><line x1="22" y1="-10" x2="56" y2="132" stroke="#C98A93" stroke-width="4.5" opacity="0.4"/><line x1="35" y1="-10" x2="69" y2="132" stroke="#C98A93" stroke-width="4.5" opacity="0.4"/><line x1="48" y1="-10" x2="82" y2="132" stroke="#C98A93" stroke-width="4.5" opacity="0.4"/><line x1="61" y1="-10" x2="95" y2="132" stroke="#C98A93" stroke-width="4.5" opacity="0.4"/><line x1="74" y1="-10" x2="108" y2="132" stroke="#C98A93" stroke-width="4.5" opacity="0.4"/><line x1="87" y1="-10" x2="121" y2="132" stroke="#C98A93" stroke-width="4.5" opacity="0.4"/><line x1="100" y1="-10" x2="134" y2="132" stroke="#C98A93" stroke-width="4.5" opacity="0.4"/><line x1="113" y1="-10" x2="147" y2="132" stroke="#C98A93" stroke-width="4.5" opacity="0.4"/><line x1="126" y1="-10" x2="160" y2="132" stroke="#C98A93" stroke-width="4.5" opacity="0.4"/><line x1="139" y1="-10" x2="173" y2="132" stroke="#C98A93" stroke-width="4.5" opacity="0.4"/>
  </g>
  <path d="M32 10 L20 22 L26 30 L32 24 V46 H68 V24 L74 30 L80 22 L68 10 C68 16 60 20 50 20 C40 20 32 16 32 10 Z M34 54 H66 L64 108 L54 108 L51 70 L48 108 L38 108 Z" fill="none" stroke="#591C30" stroke-width="2.2" stroke-linecap="round" stroke-linejoin="round"/>
  
</svg>